<?xml version="1.0" encoding="UTF-8"?>
<svg xmlns="http://www.w3.org/2000/svg" xmlns:xlink="http://www.w3.org/1999/xlink" width="48px" height="48px" viewBox="0 0 48 48" version="1.1">
<g id="surface108973">
<path style=" stroke:none;fill-rule:nonzero;fill:rgb(100%,87.843137%,69.803922%);fill-opacity:1;" d="M 15.199219 33.5 C 14.699219 33.800781 7 38.699219 7 39 C 7 39.398438 7 39.398438 7 39.398438 L 8.398438 43 L 39.601562 43 C 39.601562 43 41.101562 38.199219 41 37 C 41 36.398438 36 33.101562 36 33.101562 C 36 33.101562 39.898438 29.199219 40 20.699219 C 40 19.898438 40 19.101562 39.898438 18.300781 C 39.199219 8.699219 33.101562 5.300781 26.699219 5 C 20.199219 4.800781 16.601562 7.800781 16.601562 7.800781 C 16.601562 7.800781 12.5 9.199219 12.101562 12.5 C 12.101562 12.5 8.898438 13.101562 10.601562 19.601562 C 9.300781 20.601562 9 22 9 23 C 9 24.300781 9.398438 25.800781 10.199219 26.699219 C 11.898438 28.5 13.300781 28.101562 13.300781 28.101562 C 13.300781 28.101562 13.898438 31.300781 15.199219 33.5 Z M 15.199219 33.5 "/>
<path style=" stroke:none;fill-rule:nonzero;fill:rgb(95.686275%,26.27451%,21.176471%);fill-opacity:1;" d="M 36.800781 36.898438 C 36.601562 35.601562 36 35 34.699219 35 L 34.5 35 C 34.101562 35.101562 33.5 35.300781 31.800781 36.5 L 30.800781 37.199219 C 30.601562 37.101562 30.300781 37 30 37 C 29.5 37 29.101562 37.199219 28.699219 37.5 L 27.699219 37 L 26 36.101562 C 25.101562 35.699219 24.199219 35.398438 23.5 35.398438 C 23 35.398438 22.601562 35.5 22.199219 35.699219 C 21.699219 36.101562 21.5 36.699219 21.601562 37.5 C 21.601562 37.898438 21.699219 38.398438 21.699219 38.800781 C 21.898438 40.898438 22 42.398438 24 42.5 C 24.101562 42.5 24.199219 42.5 24.300781 42.5 C 25.398438 42.5 26.699219 42.101562 27.898438 41.199219 L 28.800781 40.601562 C 29.101562 40.800781 29.5 41 29.898438 41 C 30.398438 41 30.800781 40.800781 31.101562 40.601562 L 32.5 40.898438 C 33.101562 41 33.601562 41.101562 34.101562 41.101562 L 34.5 41.101562 C 35 41.101562 35.5 41.101562 36 40.800781 C 36.601562 40.5 36.898438 39.800781 36.898438 38.699219 C 36.898438 38.199219 36.800781 37.699219 36.800781 37.300781 Z M 36.800781 36.898438 "/>
<path style=" stroke:none;fill-rule:nonzero;fill:rgb(100%,100%,100%);fill-opacity:1;" d="M 21.699219 38.898438 C 21.699219 38.5 21.601562 38.101562 21.601562 37.601562 C 21.5 37 21.601562 36.601562 21.800781 36.199219 C 16.800781 36.101562 15.199219 33.5 15.199219 33.5 C 15.199219 33.5 14.898438 35.101562 16.300781 36.898438 C 18.398438 39.398438 21.601562 39.699219 21.601562 39.699219 L 21.800781 39.699219 C 21.800781 39.5 21.800781 39.199219 21.699219 38.898438 Z M 21.699219 38.898438 "/>
<path style=" stroke:none;fill-rule:nonzero;fill:rgb(32.941176%,43.137255%,47.843137%);fill-opacity:1;" d="M 22.898438 43 L 22.199219 41.601562 C 22.101562 41.300781 22 41 21.898438 40.5 L 21.800781 39.800781 L 21.101562 39.699219 C 20.199219 39.5 18 38.898438 16.398438 37 C 15.898438 36.398438 15.601562 35.699219 15.398438 35 L 15 33.699219 L 13.898438 34.398438 C 11.898438 35.699219 8.601562 37.800781 7.5 38.699219 L 6.898438 39.199219 L 8.398438 43 Z M 22.898438 43 "/>
<path style=" stroke:none;fill-rule:nonzero;fill:rgb(27.058824%,35.294118%,39.215686%);fill-opacity:1;" d="M 12.199219 43 L 22.898438 43 L 22.199219 41.601562 C 22.101562 41.300781 22 41 21.898438 40.5 L 21.800781 39.800781 L 21.101562 39.699219 C 20.199219 39.5 18 38.898438 16.398438 37 C 16.300781 36.898438 16.199219 36.699219 16.101562 36.601562 L 11 40 Z M 12.199219 43 "/>
<path style=" stroke:none;fill-rule:nonzero;fill:rgb(32.941176%,43.137255%,47.843137%);fill-opacity:1;" d="M 40.699219 36.5 C 40.101562 35.898438 38.300781 34.601562 37.601562 34.101562 L 36.898438 33.601562 C 36.699219 33.800781 36.300781 34.300781 35.601562 34.800781 L 36.300781 35.5 C 36.601562 35.800781 36.800781 36.300781 36.898438 36.800781 L 36.898438 37.101562 C 37 37.5 37 38 37 38.5 C 37 40.199219 36.398438 40.5 36.101562 40.601562 C 35.898438 40.699219 35.601562 40.800781 35.300781 40.800781 L 35.398438 42.800781 L 39.5 42.800781 L 39.699219 42.101562 C 40.199219 40.5 40.800781 38.199219 40.898438 37.199219 L 40.898438 36.699219 Z M 40.699219 36.5 "/>
<path style=" stroke:none;fill-rule:nonzero;fill:rgb(27.058824%,35.294118%,39.215686%);fill-opacity:1;" d="M 39.601562 43 L 39.800781 42.300781 C 40.101562 41.5 40.300781 40.398438 40.601562 39.5 L 36.898438 37.5 C 36.898438 37.800781 37 38.199219 37 38.601562 C 37 40.300781 36.398438 40.601562 36.101562 40.699219 C 35.898438 40.800781 35.601562 40.898438 35.300781 40.898438 L 35.398438 42.898438 Z M 39.601562 43 "/>
<path style=" stroke:none;fill-rule:nonzero;fill:rgb(38.039216%,38.039216%,38.039216%);fill-opacity:1;" d="M 10.300781 19.800781 C 10.300781 19.800781 10.398438 19.699219 10.300781 19.800781 L 10.398438 19.699219 C 10.898438 19.300781 11.601562 19 12.199219 19 C 12.800781 19 13.101562 19.199219 13.398438 19.300781 C 14.699219 20 15 21.300781 15.101562 22.199219 L 15.101562 22.398438 C 15.699219 22.199219 16.300781 22 16.5 21.898438 C 16.5 21.800781 16.5 21.601562 16.398438 21.300781 C 16.300781 20.898438 16.199219 20.398438 16 19.898438 C 15.601562 18.800781 15.699219 17.398438 16.300781 15.601562 L 16.398438 15.398438 C 16.5 15 16.699219 14.601562 16.699219 14.300781 C 16.699219 14 16.800781 13.699219 16.800781 13.601562 C 16.800781 13.300781 16.699219 13.101562 16.601562 12.800781 L 16.398438 12.300781 L 16.699219 11.800781 C 17.601562 10.300781 20.898438 5.300781 27.601562 5.300781 C 27.800781 5.300781 28 5.300781 28.300781 5.300781 L 28.101562 5.300781 C 27.699219 5.101562 27.199219 5 26.699219 5 C 26.5 5 26.199219 5 26 5 C 20.601562 5 17.300781 7.300781 16.699219 7.699219 L 16.601562 7.800781 L 16.5 7.898438 C 15.898438 8.101562 12.800781 9.398438 12.199219 12.101562 L 12 12.398438 L 11.601562 12.601562 C 11.199219 12.800781 10.898438 13.101562 10.699219 13.5 C 10 14.699219 9.898438 16.5 10.398438 19 L 10.5 19.5 L 10.101562 20 C 10.101562 20 10 20.101562 10 20.101562 C 10.101562 20 10.199219 19.898438 10.300781 19.800781 Z M 10.300781 19.800781 "/>
<path style=" stroke:none;fill-rule:nonzero;fill:rgb(14.901961%,19.607843%,21.960784%);fill-opacity:1;" d="M 28 41 L 34 41 L 34 43 L 28 43 Z M 14.199219 22.398438 C 14.101562 21.5 13.800781 20.699219 13.101562 20.300781 C 12.800781 20.199219 12.601562 20.101562 12.300781 20.101562 C 11.800781 20.101562 11.199219 20.300781 10.699219 21 L 10 19 C 10.898438 18.5 11.699219 18.199219 12.5 18.199219 C 13 18.199219 13.5 18.300781 14 18.5 C 14.398438 18.699219 14.800781 19 15.101562 19.300781 C 14.898438 17.898438 15.199219 16.398438 15.601562 15.199219 C 15.800781 14.699219 15.898438 14.199219 16 13.898438 C 16.101562 13.300781 16 13.199219 15.800781 12.898438 C 13.898438 13.101562 12.300781 13.601562 12.300781 13.601562 L 11.800781 11.699219 C 11.898438 11.699219 13.898438 11.101562 16.199219 10.898438 L 16.898438 10.800781 L 17.199219 11.398438 C 17.199219 11.398438 17.300781 11.5 17.300781 11.601562 C 17.601562 11.898438 18 12.5 18.101562 13.5 C 18.101562 13.699219 18.101562 14.101562 18 14.398438 C 17.898438 14.898438 17.699219 15.300781 17.601562 15.898438 C 17.199219 17.101562 16.898438 18.5 17.300781 19.5 C 17.5 20.101562 17.601562 20.699219 17.699219 21.101562 C 17.800781 21.5 17.898438 22.398438 17.5 22.699219 C 17.101562 23 14.800781 23.699219 14.800781 23.699219 C 14.800781 23.699219 14.300781 23.300781 14.199219 22.398438 Z M 14.199219 22.398438 "/>
<path style=" stroke:none;fill-rule:nonzero;fill:rgb(14.901961%,19.607843%,21.960784%);fill-opacity:1;" d="M 17.5 12.601562 L 15.699219 11.800781 C 15.699219 11.699219 19.398438 3.601562 28.699219 4.199219 L 28.601562 6.199219 C 20.601562 5.800781 17.5 12.601562 17.5 12.601562 Z M 17.5 12.601562 "/>
<path style=" stroke:none;fill-rule:nonzero;fill:rgb(100%,100%,100%);fill-opacity:1;" d="M 22 36.199219 C 16.898438 36.199219 15.199219 33.5 15.199219 33.5 C 15.199219 33.5 14.898438 35.101562 16.300781 36.898438 C 18.398438 39.398438 21.601562 39.699219 21.601562 39.699219 "/>
<path style=" stroke:none;fill-rule:nonzero;fill:rgb(14.901961%,19.607843%,21.960784%);fill-opacity:1;" d="M 21.5 40.699219 C 21.398438 40.699219 17.898438 40.300781 15.601562 37.5 C 13.898438 35.300781 14.199219 33.5 14.300781 33.300781 L 14.800781 30.699219 L 16.199219 33 C 16.300781 33.101562 17.699219 35.199219 22.101562 35.199219 L 22.101562 37.199219 C 20 37.199219 18.398438 36.800781 17.199219 36.199219 C 17.199219 36.199219 17.199219 36.199219 17.199219 36.300781 C 19 38.398438 21.699219 38.699219 21.800781 38.699219 Z M 34.699219 42 C 34.601562 42 34.5 42 34.398438 42 C 32.601562 42 30.898438 41.398438 30.800781 41.398438 L 31.5 39.5 C 31.5 39.5 32.898438 40 34.300781 40 L 34.398438 40 C 34.898438 40 35.398438 40 35.699219 39.898438 C 36 39.699219 36 39 36 38.601562 C 36 38.199219 35.898438 37.699219 35.898438 37.300781 L 35.898438 37 C 35.800781 36.199219 35.5 35.898438 34.699219 35.898438 C 34.101562 36 32.199219 37.398438 31.5 37.898438 L 31 38.300781 L 29.800781 36.699219 L 30.199219 36.398438 C 32.101562 35 33.601562 34 34.601562 34 C 36.398438 34 37.5 35 37.800781 36.800781 L 37.800781 37.101562 C 37.898438 37.5 37.898438 38.101562 38 38.601562 C 38 40.101562 37.601562 41.199219 36.601562 41.601562 C 35.898438 42 35.300781 42 34.699219 42 Z M 34.699219 42 "/>
<path style=" stroke:none;fill-rule:nonzero;fill:rgb(14.901961%,19.607843%,21.960784%);fill-opacity:1;" d="M 24.300781 43.601562 C 24.199219 43.601562 24.101562 43.601562 24 43.601562 C 21.101562 43.398438 20.898438 41.101562 20.800781 39 C 20.800781 38.601562 20.699219 38.199219 20.699219 37.800781 C 20.5 36.199219 21.199219 35.398438 21.699219 35 C 23 34.101562 25 34.5 26.5 35.199219 L 29.5 36.800781 L 28.601562 38.601562 L 25.601562 37 C 24.398438 36.398438 23.199219 36.300781 22.898438 36.601562 C 22.699219 36.800781 22.699219 37.199219 22.699219 37.5 C 22.800781 37.898438 22.800781 38.398438 22.800781 38.800781 C 23 41.199219 23.199219 41.5 24.199219 41.601562 C 26.300781 41.800781 28.398438 39.800781 28.398438 39.699219 L 29.800781 41.101562 C 29.601562 41.300781 27.199219 43.601562 24.300781 43.601562 Z M 21 15.398438 C 21 15.398438 20.800781 16 20.398438 16 C 20.199219 16 20 15.601562 20 15.199219 C 20 14 20.800781 12.5 21.601562 11.800781 C 22.199219 11.300781 23 11 23.898438 11 C 24.300781 11 24.800781 11 25.199219 11.199219 C 25.699219 11.398438 26 11.800781 26 12.601562 C 26 12.601562 26 13 24.699219 13 C 23.898438 13 22.898438 13.101562 22.5 13.5 C 22.101562 13.898438 21.5 14.300781 21 15.398438 Z M 26.398438 21 C 25.898438 21 25.300781 20.898438 24.800781 20.800781 C 24.199219 20.699219 23.898438 20.101562 24.101562 19.601562 L 24.300781 19.300781 C 24.398438 19.101562 24.601562 19 24.800781 19 C 24.898438 19 25 19 25.101562 19 C 25.898438 19.199219 27.101562 19.199219 27.5 19.199219 C 27 17.300781 27.101562 15.898438 27.398438 15.898438 C 27.699219 15.898438 28.5 18.199219 28.898438 18.699219 C 29.300781 19.199219 29.199219 19.800781 28.800781 20.199219 C 28.101562 20.800781 27.300781 21 26.398438 21 Z M 36.398438 21 C 36.199219 21 36.101562 21 35.898438 21 C 35.300781 20.898438 35 20.5 35 19.898438 C 35 19.898438 35.101562 19 35.601562 19 C 36 19 36.5 19.199219 36.699219 19.199219 C 36.5 18 36.199219 16 36.5 16 C 36.800781 16 37.5 18.398438 38.898438 19.300781 C 39.300781 19.601562 39.300781 20.199219 38.699219 20.601562 C 37.898438 20.898438 37.199219 21 36.398438 21 Z M 38.300781 14.5 C 38.101562 13.699219 37.199219 13 36.199219 12.699219 C 34.898438 12.398438 34 13 34 13 C 34 12.101562 34.699219 11.398438 35 11.300781 C 35.398438 11.101562 35.601562 11 36 11 C 38.101562 11 38.898438 12.300781 39.601562 13.601562 Z M 38.300781 14.5 "/>
<path style=" stroke:none;fill-rule:nonzero;fill:rgb(14.901961%,19.607843%,21.960784%);fill-opacity:1;" d="M 31.898438 27 C 31.800781 27 31.601562 27 31.5 27 C 30.800781 27 30.199219 26.800781 29.800781 26.300781 C 29 25.398438 28.898438 24.199219 29.199219 24 C 29.5 23.800781 29.699219 24.5 30.699219 24.800781 C 30.699219 24.800781 31.398438 24.898438 31.601562 24.898438 C 31.800781 24.898438 31.898438 24.898438 32.101562 24.898438 C 33.398438 24.898438 34.5 24.601562 34.898438 24.300781 C 35 24.199219 35 24 35 24 C 35 24 35 23.699219 33.699219 22.5 C 32.398438 21.300781 32 19.800781 32 18.5 C 32 17 32.199219 16 32.398438 16 C 32.699219 16 33 19.199219 35.101562 21 C 36.601562 22.300781 37 23.199219 37 24.101562 C 37 25 36.5 25.5 36.199219 25.800781 C 35.101562 26.800781 33.300781 27 31.898438 27 Z M 31.398438 30 C 28.300781 29.898438 26.699219 28 26.699219 28 C 26.699219 28 30.199219 28.300781 32.5 28.300781 L 32.5 30 Z M 33.601562 30 L 33.601562 28.199219 C 33.800781 28.101562 35.398438 28.300781 37.199219 27.601562 C 36.800781 29.699219 33.699219 30 33.601562 30 Z M 29.101562 33 C 26.898438 33 25.800781 32.398438 25 29.800781 C 25 29.800781 24.898438 29.601562 25.199219 29.5 C 25.5 29.398438 25.601562 29.601562 25.601562 29.601562 C 26 30.699219 27.699219 31 29.800781 31 C 29.898438 31 30 31 30.101562 31 C 31.101562 31 33.101562 31 33.101562 31 C 33.101562 31 32.699219 33 30.601562 33 C 30.300781 33 29.300781 33 29.101562 33 Z M 29.101562 33 "/>
<path style=" stroke:none;fill-rule:nonzero;fill:rgb(14.901961%,19.607843%,21.960784%);fill-opacity:1;" d="M 29 37 C 25.800781 37 23.300781 36 20.601562 33.101562 C 19.101562 31.5 19.101562 29.398438 19.300781 29.199219 C 19.5 29 19.800781 30.398438 21 31.699219 C 23.398438 34.300781 26.800781 35.101562 29.699219 34.898438 C 33.5 34.601562 35.101562 32.398438 35.398438 32.199219 L 37.101562 33.398438 C 37 33.5 34.699219 36.5 29.898438 36.898438 C 29.5 37 29.300781 37 29 37 Z M 13.398438 29 L 13.300781 28 L 13.199219 27 C 13.199219 27 13.398438 26.898438 13.800781 26.601562 C 14.101562 26.398438 14.398438 26.398438 14.699219 26.601562 L 15.199219 27 C 15.5 27.300781 15.5 27.800781 15.199219 28.101562 C 14.300781 28.898438 13.5 29 13.398438 29 Z M 13 23 L 14.601562 23.601562 C 14.5 23.199219 14 21.398438 12.601562 21 C 12.199219 20.898438 11.5 21.199219 11.398438 21.898438 C 11.398438 21.898438 11.398438 22.101562 11.398438 22.199219 C 11.398438 22.199219 11.398438 22.300781 11.398438 22.300781 C 11.5 24 13 25 13 25 Z M 13 23 "/>
<path style=" stroke:none;fill-rule:nonzero;fill:rgb(14.901961%,19.607843%,21.960784%);fill-opacity:1;" d="M 30 42 C 28.300781 42 27 40.699219 27 39 C 27 37.300781 28.300781 36 30 36 C 31.699219 36 33 37.300781 33 39 C 33 40.699219 31.699219 42 30 42 Z M 30 38 C 29.5 38 29 38.398438 29 39 C 29 39.601562 29.398438 40 30 40 C 30.601562 40 31 39.601562 31 39 C 31 38.398438 30.601562 38 30 38 Z M 30 38 "/>
<path style=" stroke:none;fill-rule:nonzero;fill:rgb(14.901961%,19.607843%,21.960784%);fill-opacity:1;" d="M 39.601562 44 L 8.398438 44 C 8 44 7.601562 43.800781 7.5 43.398438 L 6.101562 39.898438 C 6 39.601562 6 39.5 6 39.300781 L 6 38.898438 C 6.101562 37.898438 11.699219 34.398438 13.898438 33.101562 C 13.199219 31.601562 12.699219 30 12.5 29 C 11.699219 28.898438 10.699219 28.5 9.5 27.300781 C 8.398438 26.199219 8 24.300781 8 23 C 8 22.101562 8.199219 20.601562 9.398438 19.300781 C 8.800781 16.601562 8.898438 14.5 9.800781 13.101562 C 10.199219 12.398438 10.699219 12.101562 11.101562 11.800781 C 11.898438 8.699219 15.199219 7.300781 16 6.898438 C 16.800781 6.300781 20.5 3.800781 26.699219 4 C 35.101562 4.300781 40.300781 9.5 40.898438 18.199219 C 41 19 41 19.800781 41 20.601562 C 41 27.101562 38.699219 31.101562 37.5 32.699219 C 42 35.800781 42 36.300781 42 36.800781 C 42.101562 38.101562 40.898438 42 40.5 43.199219 C 40.398438 43.699219 40 44 39.601562 44 Z M 9.101562 42 L 38.800781 42 C 39.398438 40.101562 39.898438 38.101562 40 37.300781 C 39.398438 36.699219 37.300781 35.101562 35.398438 33.898438 C 35.199219 33.699219 35 33.5 35 33.199219 C 35 32.898438 35.101562 32.601562 35.300781 32.398438 C 35.300781 32.398438 38.898438 28.699219 39 20.699219 C 39 20 39 19.199219 38.898438 18.398438 C 38.199219 8 30.898438 6.199219 26.601562 6 C 20.601562 5.800781 17.199219 8.5 17.101562 8.601562 C 17 8.699219 16.898438 8.699219 16.800781 8.800781 C 16.800781 8.800781 13.300781 10 13 12.699219 C 12.898438 13.101562 12.601562 13.5 12.199219 13.601562 C 11.5 13.800781 10.398438 15.300781 11.5 19.5 C 11.601562 19.898438 11.5 20.300781 11.199219 20.5 C 10.199219 21.300781 10.101562 22.5 10.101562 23.101562 C 10.101562 24.300781 10.5 25.5 11.101562 26.101562 C 12.300781 27.398438 13.199219 27.199219 13.199219 27.199219 C 13.5 27.101562 13.800781 27.199219 14 27.300781 C 14.199219 27.5 14.398438 27.699219 14.398438 28 C 14.398438 28 14.898438 31.101562 16.199219 33.101562 C 16.300781 33.300781 16.398438 33.601562 16.300781 33.898438 C 16.199219 34.199219 16.101562 34.398438 15.800781 34.5 C 15.101562 34.898438 9.5 38.5 8.101562 39.5 Z M 40.101562 37.398438 Z M 40.101562 37.398438 "/>
</g>
</svg>
